<?xml version="1.0" encoding="utf-8"?>
<!-- Generator: Adobe Illustrator 21.1.0, SVG Export Plug-In . SVG Version: 6.00 Build 0)  -->
<svg version="1.1" xmlns="http://www.w3.org/2000/svg" xmlns:xlink="http://www.w3.org/1999/xlink" x="0px" y="0px"
	 viewBox="0 0 1280 1819" style="enable-background:new 0 0 1280 1819;" xml:space="preserve">
<style type="text/css">
	.st0{fill:#445162;}
	.st1{font-family:'ArialMT';}
	.st2{font-size:12px;}
	.st3{fill:#445161;}
	.st4{font-size:30px;}
	.st5{fill:#FFFFFF;}
	.st6{font-size:24px;}
	.st7{font-size:40px;}
	.st8{fill:none;}
	.st9{font-size:14px;}
	.st10{fill-rule:evenodd;clip-rule:evenodd;fill:#FFFFFF;}
	.st11{font-family:'Arial-BoldMT';}
	.st12{font-size:18px;}
	.st13{fill-rule:evenodd;clip-rule:evenodd;fill:#445161;}
	.st14{fill:#333333;}
	.st15{font-size:16px;}
	.st16{enable-background:new    ;}
</style>
<g id="background_xA0_Изображение_1_">
	
		<image style="overflow:visible;" width="1278" height="1819" id="background_xA0_Изображение" xlink:href="29198AD6.png" >
	</image>
</g>
<g id="Footer_1_">
	<g id="Фрилансер_по_жизни_2019">
		<text transform="matrix(1 0 0 1 563.909 1794)" class="st0 st1 st2">Фрилансер по жизни 2019</text>
	</g>
</g>
<g id="buy_it_now_1_">
	<g id="Layer_6_xA0_Изображение_1_">
		
			<image style="overflow:visible;" width="1280" height="655" id="Layer_6_xA0_Изображение" xlink:href="29198ADA.png"  transform="matrix(1 0 0 1 0 1099)">
		</image>
	</g>
	<g id="Вертикальное_выравнивание">
		<text transform="matrix(1 0 0 1 443 1170)" class="st3 st1 st4">Вертикальное выравнивание</text>
	</g>
	<g id="lux_copy_2_1_">
		<g id="bg_xA0_Изображение_5_">
			
				<image style="overflow:visible;" width="300" height="499" id="bg_xA0_Изображение_4_" xlink:href="29198ADD.png"  transform="matrix(1 0 0 1 145 1206)">
			</image>
		</g>
		<g id="bg-price_xA0_Изображение_5_">
			
				<image style="overflow:visible;" width="300" height="71" id="bg-price_xA0_Изображение_4_" xlink:href="29198ADE.png"  transform="matrix(1 0 0 1 145 1257)">
			</image>
		</g>
		<g id="буду_рад_2_">
			<text transform="matrix(1 0 0 1 233.2832 1241)" class="st5 st1 st6">буду рад</text>
		</g>
		<g id="подписке">
			<text transform="matrix(1 0 0 1 206.502 1303)" class="st0 st1 st7">подписке</text>
		</g>
		<g id="Lorem_ipsum_dolor_sit_amet_x2C__consectetur_adipisicing_elit._Sint_3_">
			<rect x="165" y="1348" class="st8" width="250.8" height="294"/>
			<text id="Lorem_ipsum_dolor_sit_amet_x2C__consectetur_adipisicing_elit._Sint" transform="matrix(1 0 0 1 165 1358.0238)"><tspan x="0" y="0" class="st5 st1 st9">Lorem ipsum dolor sit amet, consectetur </tspan><tspan x="0" y="24" class="st5 st1 st9">adipisicing elit. Sint tenetur fugit vel, </tspan><tspan x="0" y="48" class="st5 st1 st9">eligendi illum, placeat quo vero reicien</tspan><tspan x="237.4" y="48" class="st5 st1 st9">-</tspan><tspan x="0" y="72" class="st5 st1 st9">dis consectetur.</tspan></text>
		</g>
		<g id="button_5_">
			<g id="bg_button">
				<g>
					<path class="st10" d="M420,1645H170c-2.8,0-5,2.2-5,5v30c0,2.8,2.2,5,5,5h250c2.8,0,5-2.2,5-5v-30
						C425,1647.2,422.8,1645,420,1645z"/>
				</g>
			</g>
			<g id="подписаться">
				<text transform="matrix(1 0 0 1 232.1768 1670)" class="st3 st11 st12">подписаться</text>
			</g>
		</g>
	</g>
	<g id="lux_copy_3_1_">
		<g id="bg_xA0_Изображение_3_">
			
				<image style="overflow:visible;" width="300" height="499" id="bg_xA0_Изображение_2_" xlink:href="29198ADC.png"  transform="matrix(1 0 0 1 490 1205)">
			</image>
		</g>
		<g id="bg-price_xA0_Изображение_3_">
			
				<image style="overflow:visible;" width="300" height="71" id="bg-price_xA0_Изображение_2_" xlink:href="29198ADB.png"  transform="matrix(1 0 0 1 490 1256)">
			</image>
		</g>
		<g id="буду_рад_1_">
			<text transform="matrix(1 0 0 1 578.2832 1240)" class="st5 st1 st6">буду рад</text>
		</g>
		<g id="лайку">
			<text transform="matrix(1 0 0 1 584.2852 1302)" class="st0 st1 st7">лайку</text>
		</g>
		<g id="Lorem_ipsum_dolor_sit_amet_x2C__consectetur_adipisicing_elit._Sint_2_">
			<rect x="510" y="1347" class="st8" width="250.8" height="294"/>
			<text id="Lorem_ipsum_dolor_sit_amet_x2C__consectetur_adipisicing_elit._Sint_1_" transform="matrix(1 0 0 1 510 1357.0238)"><tspan x="0" y="0" class="st5 st1 st9">Lorem ipsum dolor sit amet, consectetur </tspan><tspan x="0" y="24" class="st5 st1 st9">adipisicing elit. Sint tenetur fugit vel, </tspan><tspan x="0" y="48" class="st5 st1 st9">eligendi illum, placeat quo vero reicien</tspan><tspan x="237.4" y="48" class="st5 st1 st9">-</tspan><tspan x="0" y="72" class="st5 st1 st9">dis consectetur voluptatibus atque et </tspan><tspan x="0" y="96" class="st5 st1 st9">itaque, hic, deleniti. Sunt commodi </tspan><tspan x="0" y="120" class="st5 st1 st9">tempora voluptatum dolorum.</tspan><tspan x="0" y="144" class="st5 st1 st9"> </tspan><tspan x="0" y="168" class="st5 st1 st9">Lorem ipsum dolor sit amet, consectetur </tspan><tspan x="0" y="192" class="st5 st1 st9">adipisicing elit. Sint tenetur fugit vel, </tspan><tspan x="0" y="216" class="st5 st1 st9">eligendi illum, placeat quo vero reicien</tspan><tspan x="237.4" y="216" class="st5 st1 st9">-</tspan><tspan x="0" y="240" class="st5 st1 st9">dis consectetur tempora voluptatum </tspan><tspan x="0" y="264" class="st5 st1 st9">dolorum.</tspan></text>
		</g>
		<g id="button_4_">
			<g id="bg_button_1_">
				<g>
					<path class="st10" d="M765,1644H515c-2.8,0-5,2.2-5,5v30c0,2.8,2.2,5,5,5h250c2.8,0,5-2.2,5-5v-30
						C770,1646.2,767.8,1644,765,1644z"/>
				</g>
			</g>
			<g id="лайк">
				<text transform="matrix(1 0 0 1 614.2402 1669)" class="st3 st11 st12">лайк</text>
			</g>
		</g>
	</g>
	<g id="lux_copy_4_1_">
		<g id="bg_xA0_Изображение_1_">
			
				<image style="overflow:visible;" width="300" height="499" id="bg_xA0_Изображение" xlink:href="29198AD5.png"  transform="matrix(1 0 0 1 835 1205)">
			</image>
		</g>
		<g id="bg-price_xA0_Изображение_1_">
			
				<image style="overflow:visible;" width="300" height="71" id="bg-price_xA0_Изображение" xlink:href="29198AD7.png"  transform="matrix(1 0 0 1 835 1256)">
			</image>
		</g>
		<g id="буду_рад">
			<text transform="matrix(1 0 0 1 923.2832 1240)" class="st5 st1 st6">буду рад</text>
		</g>
		<g id="комментарию">
			<text transform="matrix(1 0 0 1 858.8809 1302)" class="st0 st1 st7">комментарию</text>
		</g>
		<g id="Lorem_ipsum_dolor_sit_amet_x2C__consectetur_adipiscing_elit_x2C__sed_do_1_">
			<rect x="855" y="1347" class="st8" width="250.8" height="294"/>
			<text id="Lorem_ipsum_dolor_sit_amet_x2C__consectetur_adipiscing_elit_x2C__sed_do" transform="matrix(1 0 0 1 855 1357.0238)"><tspan x="0" y="0" class="st5 st1 st9">Lorem ipsum dolor sit amet, consectetur </tspan><tspan x="0" y="24" class="st5 st1 st9">adipiscing elit, sed do eiusmod tempor </tspan><tspan x="0" y="48" class="st5 st1 st9">incididunt ut labore et dolore magna </tspan><tspan x="0" y="72" class="st5 st1 st9">aliqua. Quis ipsum suspendisse ultrices </tspan><tspan x="0" y="96" class="st5 st1 st9">gravida. Risus commodo viverra </tspan><tspan x="0" y="120" class="st5 st1 st9">maecenas accumsan lacus vel facilisis. </tspan></text>
		</g>
		<g id="button_3_">
			<g id="bg_button_2_">
				<g>
					<path class="st10" d="M1110,1644H860c-2.8,0-5,2.2-5,5v30c0,2.8,2.2,5,5,5h250c2.8,0,5-2.2,5-5v-30
						C1115,1646.2,1112.8,1644,1110,1644z"/>
				</g>
			</g>
			<g id="комментировать">
				<text transform="matrix(1 0 0 1 904.8271 1669)" class="st3 st11 st12">комментировать</text>
			</g>
		</g>
	</g>
</g>
<g id="scrinshots_1_">
	<g id="Колонки_с_flex-контейнерами">
		<text transform="matrix(1 0 0 1 439.646 683)" class="st3 st1 st4">Колонки с flex-контейнерами</text>
	</g>
	<g id="left_items_1_">
		<g id="item_7_">
			<g id="image">
				<g>
					<rect x="50" y="720" class="st13" width="200" height="150"/>
				</g>
			</g>
			<g id="The_description_for_the_image_3_">
				<text transform="matrix(1 0 0 1 265 737)" class="st3 st1 st6">The description for the image</text>
			</g>
			<g id="Pariatur_iure_ab_sunt_nesciunt_x2C__quibusdam_odio_iste_cumque_itaq_3_">
				<rect x="265" y="758" class="st8" width="364.5" height="126"/>
				<text id="Pariatur_iure_ab_sunt_nesciunt_x2C__quibusdam_odio_iste_cumque_itaq" transform="matrix(1 0 0 1 265 769.4558)"><tspan x="0" y="0" class="st14 st1 st15">Pariatur iure ab sunt nesciunt, quibusdam odio iste </tspan><tspan x="0" y="24" class="st14 st1 st15">cumque itaque, ipsa vel exercitationem ullam quos </tspan><tspan x="0" y="48" class="st14 st1 st15">aut nostrum cupiditate fuga quaerat quam animi </tspan><tspan x="0" y="72" class="st14 st1 st15">dolores. Sequi itaque, unde perferendis nemo </tspan><tspan x="0" y="96" class="st14 st1 st15">debitis dolor.</tspan></text>
			</g>
		</g>
		<g id="item_6_">
			<g id="image_1_">
				<g>
					<rect x="50" y="900" class="st13" width="200" height="150"/>
				</g>
			</g>
			<g id="The_description_for_the_image_2_">
				<text transform="matrix(1 0 0 1 265 917)" class="st3 st1 st6">The description for the image</text>
			</g>
			<g id="Lorem_ipsum_dolor_sit_amet_x2C__consectetur_adipisicing_elit._Nobis_3_">
				<rect x="265" y="938" class="st8" width="358.4" height="96"/>
				<text id="Lorem_ipsum_dolor_sit_amet_x2C__consectetur_adipisicing_elit._Nobis" transform="matrix(1 0 0 1 265 949.4558)"><tspan x="0" y="0" class="st14 st1 st15">Lorem ipsum dolor sit amet, consectetur adipisic</tspan><tspan x="342.4" y="0" class="st14 st1 st15">-</tspan><tspan x="0" y="24" class="st14 st1 st15">ing elit. Nobis facilis fuga, illo at. Natus eos, </tspan><tspan x="0" y="48" class="st14 st1 st15">eligendi illum rerum omnis porro ex, magni, expli</tspan><tspan x="343.3" y="48" class="st14 st1 st15">-</tspan><tspan x="0" y="72" class="st14 st1 st15">cabo veniam incidunt in quam sapiente ut ipsum.</tspan></text>
			</g>
		</g>
	</g>
	<g id="right_items_1_">
		<g id="item_5_">
			<g id="image_2_">
				<g>
					<rect x="640" y="720" class="st13" width="200" height="150"/>
				</g>
			</g>
			<g id="The_description_for_the_image_1_">
				<text transform="matrix(1 0 0 1 855 737)" class="st3 st1 st6">The description for the image</text>
			</g>
			<g id="Pariatur_iure_ab_sunt_nesciunt_x2C__quibusdam_odio_iste_cumque_itaq_2_">
				<rect x="855" y="758" class="st8" width="364.5" height="126"/>
				<text id="Pariatur_iure_ab_sunt_nesciunt_x2C__quibusdam_odio_iste_cumque_itaq_1_" transform="matrix(1 0 0 1 855 769.4558)"><tspan x="0" y="0" class="st14 st1 st15">Pariatur iure ab sunt nesciunt, quibusdam odio iste </tspan><tspan x="0" y="24" class="st14 st1 st15">cumque itaque, ipsa vel exercitationem ullam quos </tspan><tspan x="0" y="48" class="st14 st1 st15">aut nostrum cupiditate fuga quaerat quam animi </tspan><tspan x="0" y="72" class="st14 st1 st15">dolores. Sequi itaque, unde perferendis nemo </tspan><tspan x="0" y="96" class="st14 st1 st15">debitis dolor.</tspan></text>
			</g>
		</g>
		<g id="item_4_">
			<g id="image_3_">
				<g>
					<rect x="640" y="900" class="st13" width="200" height="150"/>
				</g>
			</g>
			<g id="The_description_for_the_image">
				<text transform="matrix(1 0 0 1 855 917)" class="st3 st1 st6">The description for the image</text>
			</g>
			<g id="Lorem_ipsum_dolor_sit_amet_x2C__consectetur_adipisicing_elit._Nobis_2_">
				<rect x="855" y="938" class="st8" width="358.4" height="96"/>
				<text id="Lorem_ipsum_dolor_sit_amet_x2C__consectetur_adipisicing_elit._Nobis_1_" transform="matrix(1 0 0 1 855 949.4558)"><tspan x="0" y="0" class="st14 st1 st15">Lorem ipsum dolor sit amet, consectetur adipisic</tspan><tspan x="342.4" y="0" class="st14 st1 st15">-</tspan><tspan x="0" y="24" class="st14 st1 st15">ing elit. Nobis facilis fuga, illo at. Natus eos, </tspan><tspan x="0" y="48" class="st14 st1 st15">eligendi illum rerum omnis porro ex, magni, expli</tspan><tspan x="343.3" y="48" class="st14 st1 st15">-</tspan><tspan x="0" y="72" class="st14 st1 st15">cabo veniam incidunt in quam sapiente ut ipsum.</tspan></text>
			</g>
		</g>
	</g>
</g>
<g id="about_1_">
	<g id="Layer_7_xA0_Изображение_1_">
		
			<image style="overflow:visible;" width="1280" height="290" id="Layer_7_xA0_Изображение" xlink:href="29198AD4.png"  transform="matrix(1 0 0 1 0 323)">
		</image>
	</g>
	<g id="Flexbox_-_это_целый_модуль_x2C__содержащий_в_себе_набор_свойств_и_и_1_">
		<rect x="518" y="433" class="st8" width="665" height="141"/>
		
			<text id="Flexbox_-_это_целый_модуль_x2C__содержащий_в_себе_набор_свойств_и_и" transform="matrix(1 0 0 1 518 444.4558)"><tspan x="0" y="0" class="st14 st1 st15">Flexbox - это целый модуль, содержащий в себе набор свойств и их значений как для </tspan><tspan x="0" y="24" class="st14 st1 st15">родителя flex-контейнера так и для его дочерних элементов flex-элементов. </tspan><tspan x="0" y="72" class="st14 st1 st15">Основным преимуществом гибкой FLEX разметки является возможность изменять </tspan><tspan x="0" y="96" class="st14 st1 st15">ширину/высоту пространство вокруг и порядок flex-элементов, для того чтобы </tspan><tspan x="0" y="120" class="st14 st1 st15">наилучшим образом заполнить доступное пространство flex-контейнера</tspan></text>
	</g>
	<g id="Что_такое_FlexBox_x3F_">
		<text transform="matrix(1 0 0 1 519 396)" class="st3 st1 st4">Что такое FlexBox?</text>
	</g>
	<g id="video__x2B__ee5h1np0idz_x5F_5_x5F_keo0y-jkklgc8_2_" class="st16">
		<defs>
			<rect id="SVGID_1_" x="50" y="372" class="st16" width="430" height="186"/>
		</defs>
		<clipPath id="SVGID_2_">
			<use xlink:href="#SVGID_1_"  style="overflow:visible;"/>
		</clipPath>
		<g style="clip-path:url(#SVGID_2_);">
			
				<image style="overflow:visible;" width="430" height="186" id="video__x2B__ee5h1np0idz_x5F_5_x5F_keo0y-jkklgc8_xA0_Изображение" xlink:href="F0B11149.png"  transform="matrix(1 0 0 1 50 372)">
			</image>
		</g>
	</g>
</g>
<g id="header_1_">
	<g id="header-bg_xA0_Изображение_1_">
		
			<image style="overflow:visible;" width="1280" height="323" id="header-bg_xA0_Изображение" xlink:href="F0B1114F.png" >
		</image>
	</g>
	<g id="Shape_9__x2B__Layer_3_2_" class="st16">
		<defs>
			<rect id="SVGID_3_" x="761" y="50" class="st16" width="469" height="214"/>
		</defs>
		<clipPath id="SVGID_4_">
			<use xlink:href="#SVGID_3_"  style="overflow:visible;"/>
		</clipPath>
		<g style="clip-path:url(#SVGID_4_);">
			
				<image style="overflow:visible;" width="469" height="214" id="Shape_9__x2B__Layer_3_xA0_Изображение" xlink:href="F0B11148.png"  transform="matrix(1 0 0 1 761 50)">
			</image>
		</g>
	</g>
	<g id="Привет_x2C__друг_x21__xA0_Изображение_1_">
		
			<image style="overflow:visible;" width="366" height="56" id="Привет_x2C__друг_x21__xA0_Изображение" xlink:href="F0B1114B.png"  transform="matrix(1 0 0 1 50 50)">
		</image>
	</g>
	
		<g id="У_тебя_все_получится_x21__Никогда_не_сдавайся_x21__Сегодня_ты_уже_знаеш_xA0_Изображение_1_">
		
			<image style="overflow:visible;" width="405" height="128" id="У_тебя_все_получится_x21__Никогда_не_сдавайся_x21__Сегодня_ты_уже_знаеш_xA0_Изображение" xlink:href="F0B11157.png"  transform="matrix(1 0 0 1 86 145)">
		</image>
	</g>
	<g id="check_icon_xA0_Изображение_7_">
		
			<image style="overflow:visible;" width="25" height="19" id="check_icon_xA0_Изображение_6_" xlink:href="F0B11147.png"  transform="matrix(1 0 0 1 51 143)">
		</image>
	</g>
	<g id="check_icon_xA0_Изображение_5_">
		
			<image style="overflow:visible;" width="25" height="19" id="check_icon_xA0_Изображение_4_" xlink:href="F0B11159.png"  transform="matrix(1 0 0 1 50 177)">
		</image>
	</g>
	<g id="check_icon_xA0_Изображение_3_">
		
			<image style="overflow:visible;" width="25" height="19" id="check_icon_xA0_Изображение_2_" xlink:href="F0B1115B.png"  transform="matrix(1 0 0 1 50 213)">
		</image>
	</g>
	<g id="check_icon_xA0_Изображение_1_">
		
			<image style="overflow:visible;" width="25" height="19" id="check_icon_xA0_Изображение" xlink:href="F0B11158.png"  transform="matrix(1 0 0 1 50 249)">
		</image>
	</g>
</g>
</svg>
